<?xml version="1.0" encoding="UTF-8" standalone="no"?>
<svg
   xmlns:dc="http://purl.org/dc/elements/1.1/"
   xmlns:cc="http://creativecommons.org/ns#"
   xmlns:rdf="http://www.w3.org/1999/02/22-rdf-syntax-ns#"
   xmlns:svg="http://www.w3.org/2000/svg"
   xmlns="http://www.w3.org/2000/svg"
   viewBox="0 0 259.32001 83.893333"
   height="83.893333"
   width="259.32001"
   xml:space="preserve"
   id="svg2"
   version="1.1"><metadata
     id="metadata8"><rdf:RDF><cc:Work
         rdf:about=""><dc:format>image/svg+xml</dc:format><dc:type
           rdf:resource="http://purl.org/dc/dcmitype/StillImage" /></cc:Work></rdf:RDF></metadata><defs
     id="defs6" /><g
     transform="matrix(1.3333333,0,0,-1.3333333,0,83.893333)"
     id="g10"><g
       transform="scale(0.1)"
       id="g12"><path
         id="path14"
         style="fill:#211d1d;fill-opacity:1;fill-rule:nonzero;stroke:none"
         d="M 921.566,533.352 978.285,479.734 933.52,436.93 832.605,532.789 933.52,629.211 978.285,587.008 921.566,533.352" /><path
         id="path16"
         style="fill:#211d1d;fill-opacity:1;fill-rule:nonzero;stroke:none"
         d="m 997.422,547.07 c -5.371,6.282 -14.317,7.399 -20.317,6.282 -8.351,-1.719 -19.707,-11.985 -7.167,-21.684 1.777,-1.742 1.218,-4.023 1.218,-4.023 -1.218,0 -1.797,3.425 -5.957,4.023 -7.176,2.262 -10.781,0 -13.144,-5.723 -1.211,-5.152 0.578,-9.707 5.968,-12.566 10.731,-5.68 11.915,1.711 14.922,1.711 2.371,0 1.778,-4.563 1.778,-5.117 0,-6.832 0,-7.414 3.562,-7.414 2.418,0 1.774,0.582 1.774,7.414 0,1.136 0,6.265 0.644,6.843 1.192,2.293 5.352,3.414 6.582,-1.136 0,-1.164 -1.23,0 -2.402,-2.301 -1.211,-9.121 17.287,-1.707 16.757,5.16 -0.66,5.117 -6.015,7.988 -11.386,7.988 -5.371,0 -7.813,-0.582 -10.195,-2.871 -2.954,-2.863 -3.52,-6.84 -3.52,-6.84 -1.223,0 -2.434,10.301 8.93,12.555 5.371,1.117 11.953,-1.144 11.953,-1.144 8.358,8.543 4.218,14.261 0,18.843" /><path
         id="path18"
         style="fill:#211d1d;fill-opacity:1;fill-rule:nonzero;stroke:none"
         d="m 961.559,540.801 c 0,1.687 1.199,3.969 1.199,3.969 0,0 -5.36,1.73 -8.926,-2.282 -4.16,-5.718 0,-9.699 0,-9.699 0,0 2.383,1.727 4.191,2.281 1.747,0.578 3.536,0.578 5.34,0.578 -1.172,1.719 -1.804,2.864 -1.804,5.153" /><path
         id="path20"
         style="fill:#211d1d;fill-opacity:1;fill-rule:nonzero;stroke:none"
         d="m 1023.65,437.52 -45.365,42.777 55.545,52.492 -56.119,53.66 45.379,42.762 100.29,-96.422 -99.73,-95.269" /><path
         id="path22"
         style="fill:#211d1d;fill-opacity:1;fill-rule:nonzero;stroke:none"
         d="m 43.3984,440.898 c 0,-16.011 0.7227,-23.121 3.5586,-36.64 l 56.926,-207.07 64.398,243.71 h 37.36 l 66.175,-241.921 53.719,203.14 c 3.914,18.512 4.274,30.957 4.637,38.781 h 28.098 c -7.469,-15.648 -10.668,-23.48 -15.657,-37.347 L 282.133,170.867 H 245.492 L 177.527,415.648 113.852,170.867 H 77.207 L 15.2969,401.422 C 10.668,417.07 7.46875,424.539 0,440.898 h 43.3984" /><path
         id="path24"
         style="fill:#211d1d;fill-opacity:1;fill-rule:nonzero;stroke:none"
         d="m 398.227,422.758 c 0,-9.61 -7.829,-18.5 -18.145,-18.5 -10.316,0 -18.144,8.89 -18.144,18.5 0,9.609 7.828,18.863 18.144,18.863 10.316,0 18.145,-9.254 18.145,-18.863 M 361.938,170.867 c 4.269,9.25 4.625,29.524 4.625,65.813 v 98.91 c 0,10.68 -1.422,22.769 -4.625,30.598 h 32.023 V 236.68 c 0,-36.289 0.355,-56.563 4.617,-65.813 h -36.64" /><path
         id="path26"
         style="fill:#211d1d;fill-opacity:1;fill-rule:nonzero;stroke:none"
         d="m 594.078,170.867 h -36.301 c 3.922,9.25 4.27,29.524 4.27,65.813 v 59.425 c 0,34.864 -11.379,58.704 -44.469,58.704 -36.64,0 -56.918,-25.258 -56.918,-80.063 V 236.68 c 0,-36.289 0.352,-56.563 4.617,-65.813 h -36.64 c 4.261,9.25 4.625,29.524 4.625,65.813 v 98.91 c 0,10.68 -1.422,22.769 -4.625,30.598 h 32.023 v -33.086 c 20.633,28.109 40.918,34.867 67.949,34.867 37.36,0 61.192,-23.481 61.192,-65.11 V 236.68 c 0,-36.289 0.355,-56.563 4.277,-65.813" /><path
         id="path28"
         style="fill:#211d1d;fill-opacity:1;fill-rule:nonzero;stroke:none"
         d="m 821.176,170.867 h -28.465 c -4.621,5.332 -6.402,18.137 -6.039,28.813 -23.844,-22.778 -45.543,-30.586 -69.035,-30.586 -43.758,0 -99.258,32.011 -99.258,99.258 0,55.859 44.476,99.617 99.258,99.617 23.492,0 51.593,-7.824 71.152,-36.641 v 84.32 c 0,10.661 -1.059,22.77 -4.617,30.59 h 32.387 V 201.453 c 0,-10.664 1.41,-22.762 4.617,-30.586 M 720.84,180.82 c 40.555,0 69.027,26.692 69.027,81.836 0,63.684 -23.836,92.864 -71.16,92.864 -39.137,0 -66.891,-35.93 -66.891,-89.661 0,-54.421 25.274,-85.039 69.024,-85.039" /><path
         id="path30"
         style="fill:#211d1d;fill-opacity:1;fill-rule:nonzero;stroke:none"
         d="m 865.18,269.07 c 2.14,-53.023 22.418,-89.675 72.218,-89.675 28.817,0 51.235,12.46 66.902,55.871 l 20.27,-16.719 c -21,-35.942 -57.632,-49.453 -88.242,-49.453 -59.047,0 -102.461,40.906 -102.461,103.875 0,52.301 41.621,95 95.711,95 44.82,0 98.552,-27.75 101.752,-98.899 z m 0,10.664 h 132.34 c 0,48.395 -26.313,79.696 -64.036,79.696 -36.632,0 -63.675,-34.512 -68.304,-79.696" /><path
         id="path32"
         style="fill:#211d1d;fill-opacity:1;fill-rule:nonzero;stroke:none"
         d="m 1080,170.867 h -36.64 c 4.28,9.25 4.61,29.524 4.61,65.813 v 98.91 c 0,10.68 -1.41,22.769 -4.61,30.598 h 32.01 v -31.309 c 14.59,23.129 28.48,33.449 49.81,33.09 4.27,0 6.77,-0.364 16.01,-2.84 v -27.055 c -8.53,4.285 -16.01,6.059 -22.75,6.059 -25.63,0 -43.07,-22.063 -43.07,-53.723 v -53.73 c 0,-36.289 0.35,-56.563 4.63,-65.813" /><path
         id="path34"
         style="fill:#211d1d;fill-opacity:1;fill-rule:nonzero;stroke:none"
         d="m 1301.84,236.68 c 0,-36.289 0.35,-56.563 4.62,-65.813 h -36.64 c 3.89,9.25 4.26,29.524 4.26,65.813 v 59.425 c 0,34.864 -7.48,58.704 -40.9,58.704 -20.99,0 -41.29,-17.793 -41.29,-52.661 V 236.68 c 0,-36.289 0.36,-56.563 4.63,-65.813 h -36.64 c 4.26,9.25 4.61,29.524 4.61,65.813 v 98.91 c 0,10.68 -1.4,22.769 -4.61,30.598 h 32.01 v -24.192 c 11.04,13.883 25.26,25.973 48.75,25.973 26.68,0 46.61,-12.09 55.86,-34.16 11.02,18.148 28.09,34.16 54.44,34.16 37.34,0 61.19,-23.481 61.19,-65.11 V 236.68 c 0,-36.289 0.35,-56.563 4.28,-65.813 h -36.31 c 3.92,9.25 4.28,29.524 4.28,65.813 v 59.425 c 0,34.864 -7.84,58.704 -40.92,58.704 -25.61,0 -41.62,-22.77 -41.62,-55.153 V 236.68" /><path
         id="path36"
         style="fill:#211d1d;fill-opacity:1;fill-rule:nonzero;stroke:none"
         d="m 1472.01,269.07 c 2.13,-53.023 22.42,-89.675 72.23,-89.675 28.81,0 51.23,12.46 66.89,55.871 l 20.28,-16.719 c -21,-35.942 -57.64,-49.453 -88.25,-49.453 -59.06,0 -102.46,40.906 -102.46,103.875 0,52.301 41.62,95 95.71,95 44.82,0 98.55,-27.75 101.75,-98.899 z m 0,10.664 h 132.35 c 0,48.395 -26.31,79.696 -64.05,79.696 -36.64,0 -63.67,-34.512 -68.3,-79.696" /><path
         id="path38"
         style="fill:#211d1d;fill-opacity:1;fill-rule:nonzero;stroke:none"
         d="m 1692.15,170.867 h -36.62 c 4.26,9.25 4.61,29.524 4.61,65.813 v 98.91 c 0,10.68 -1.43,22.769 -4.61,30.598 h 32.01 v -31.309 c 14.57,23.129 28.46,33.449 49.8,33.09 4.28,0 6.76,-0.364 16.02,-2.84 v -27.055 c -8.54,4.285 -16.02,6.059 -22.77,6.059 -25.61,0 -43.05,-22.063 -43.05,-53.723 v -53.73 c 0,-36.289 0.35,-56.563 4.61,-65.813" /><path
         id="path40"
         style="fill:#211d1d;fill-opacity:1;fill-rule:nonzero;stroke:none"
         d="m 1778.73,269.07 c 2.13,-53.023 22.42,-89.675 72.23,-89.675 28.81,0 51.23,12.46 66.87,55.871 l 20.3,-16.719 c -21,-35.942 -57.64,-49.453 -88.25,-49.453 -59.06,0 -102.46,40.906 -102.46,103.875 0,52.301 41.62,95 95.71,95 44.82,0 98.55,-27.75 101.75,-98.899 z m 0,10.664 h 132.34 c 0,48.395 -26.3,79.696 -64.04,79.696 -36.64,0 -63.67,-34.512 -68.3,-79.696" /><path
         id="path42"
         style="fill:#211d1d;fill-opacity:1;fill-rule:nonzero;stroke:none"
         d="m 1570.55,41.2891 c 0,-13.1368 0,-23.8555 -0.8,-29.4649 -0.65,-4.00389 -0.96,-6.72654 -3.68,-7.20701 -1.28,-0.15235 -3.04,-0.64063 -4.31,-0.64063 -0.8,0 -1.13,-0.625 -1.13,-1.10547 0,-0.79296 0.8,-1.11328 2.24,-1.11328 2.25,0 5.43,0.15625 8.17,0.32032 3.02,0.15625 5.76,0.15625 6.07,0.15625 2.07,0 5.74,0 11.66,-0.32032 5.78,-0.15625 13.94,-0.47656 24.51,-0.47656 5.43,0 6.88,0 7.83,3.51172 0.8,2.87109 1.94,12.16018 1.94,13.11718 0,0.9649 -0.18,2.0899 -0.98,2.0899 -0.8,0 -1.11,-0.4883 -1.43,-2.0899 -0.82,-5.4375 -2.73,-7.8398 -6.38,-9.44531 -3.69,-1.4414 -10.41,-1.4414 -14.1,-1.4414 -13.95,0 -16.51,1.75781 -16.82,10.88671 -0.16,2.7344 0,18.582 0,23.2227 v 11.3672 c 0,0.4804 0.16,0.9648 0.96,0.9648 2.4,0 17.46,-0.1641 21.31,-0.6406 5.44,-0.6446 6.71,-2.2383 7.2,-4.1641 0.65,-1.7539 0.65,-3.2031 0.65,-4.4805 0,-0.8007 0.31,-1.289 0.93,-1.289 0.96,0 1.27,1.457 1.27,2.5664 0,0.9687 0.34,6.0859 0.65,8.8008 0.31,4.4726 1.11,6.7187 1.11,7.5195 0,0.793 -0.31,1.1133 -0.8,1.1133 -0.47,0 -1.11,-0.8008 -2.07,-1.7578 -1.42,-1.4453 -3.5,-1.6016 -6.85,-1.9258 -3.23,-0.3086 -21.8,-0.3086 -23.56,-0.3086 -0.8,0 -0.8,0.4766 -0.8,1.4336 v 36.9922 c 0,0.957 0.16,1.4336 0.8,1.4336 1.6,0 17.93,-0.1524 20.33,-0.4766 7.7,-0.957 9.14,-1.9141 10.08,-4.1602 0.65,-1.6015 0.8,-3.8398 0.8,-4.7968 0,-1.1289 0.31,-1.7774 1.11,-1.7774 0.65,0 1.14,0.8047 1.29,1.4571 0.32,1.582 0.63,7.6562 0.8,8.9375 0.32,3.8553 1.12,5.4493 1.12,6.4143 0,0.633 -0.16,1.277 -0.65,1.277 -0.64,0 -1.27,-0.476 -1.91,-0.644 -1.11,-0.157 -3.65,-0.633 -6.39,-0.797 -3.2,-0.16 -32.65,0 -33.61,0 -0.8,0 -9.92,0.32 -16.33,0.32 -1.6,0 -2.23,-0.32 -2.23,-1.121 0,-0.481 0.63,-1.113 1.12,-1.113 1.29,0.015 3.67,-0.149 4.8,-0.305 4.63,-0.645 5.43,-2.8907 5.76,-7.5274 0.32,-4.3282 0.32,-8.1758 0.32,-29.3086 z m -100.59,57.1484 17.58,-0.3242 c 13.44,-0.3086 16.46,-3.3555 16.95,-7.5156 l 0.16,-1.4375 c 0.15,-1.9258 0.49,-2.4024 1.13,-2.4024 0.65,0 1.29,0.6445 1.29,1.7578 0,1.5821 0.49,11.3477 0.49,15.5154 0,0.793 0,1.594 -0.65,1.594 -0.64,0 -1.93,-0.312 -4.02,-0.637 -2.23,-0.32 -5.43,-0.64 -10.08,-0.64 h -53.08 c -1.6,0 -7.05,0.164 -11.06,0.64 -3.83,0.481 -5.27,1.606 -6.23,1.606 -0.49,0 -1.13,-1.77 -1.44,-2.563 -0.16,-1.121 -3.05,-13.2693 -3.05,-14.7146 0,-0.8008 0.64,-1.1133 0.98,-1.1133 0.62,0 1.11,0.1563 1.42,1.2774 0.49,0.957 0.65,1.914 2.25,4.3203 2.09,3.2031 5.45,4.1601 14.26,4.3125 l 20.33,0.3242 V 41.2891 c 0,-13.1368 0,-23.8555 -0.65,-29.4649 -0.49,-4.00389 -1.29,-6.72654 -4.18,-7.35936 -1.27,-0.32421 -2.87,-0.64843 -4.16,-0.64843 -0.8,0 -1.11,-0.46485 -1.11,-0.94532 0,-0.79296 0.64,-1.11328 2.25,-1.11328 4.16,0 13.9,0.46094 14.55,0.46094 0.8,0 9.74,-0.46094 17.42,-0.46094 1.6,0 2.24,0.47657 2.24,1.11328 0,0.48047 -0.17,1.10547 -1.13,1.10547 -1.27,0 -4.47,0.32032 -6.38,0.64063 -4.32,0.63672 -4.97,3.20312 -5.43,7.20701 -0.65,5.6094 -0.65,16.3281 -0.65,29.4649 z M 1318.81,45.2813 c -0.47,0 -0.63,0.3164 -0.47,0.957 l 13.12,37.2969 c 0.81,2.0781 1.61,2.0781 2.41,0 l 13.92,-37.2969 c 0.16,-0.6406 0.16,-0.957 -0.49,-0.957 h -28.49 z M 1298.5,16.7852 c -2.74,-6.87504 -5.45,-11.68754 -11.86,-12.48832 -1.11,-0.15625 -3.18,-0.32032 -4.16,-0.32032 -0.62,0 -1.27,-0.46875 -1.27,-1.10547 0,-0.79296 0.96,-1.11328 2.72,-1.11328 5.76,0 12.79,0.46094 14.23,0.46094 1.61,0 9.3,-0.46094 12.66,-0.46094 1.27,0 2.07,0.32032 2.07,1.11328 0,0.63672 -0.31,1.10547 -1.43,1.10547 h -1.28 c -2.41,0 -4.81,0.96485 -4.81,3.6875 0,2.40234 0.8,5.76564 2.09,9.12114 l 7.99,21.789 c 0.33,0.8008 0.8,1.1211 1.44,1.1211 h 32.5 c 0.81,0 0.96,-0.1562 1.27,-0.8008 L 1363.3,7.66406 c 0.98,-2.24218 -0.47,-3.36718 -1.27,-3.6875 -0.64,-0.3164 -0.96,-0.3164 -0.96,-0.94922 0,-0.79296 2.23,-0.79296 4.97,-0.94921 9.74,-0.32032 20.15,-0.32032 22.24,-0.32032 1.6,0 3.2,0.32032 3.2,1.11328 0,0.78907 -0.95,1.10547 -1.75,1.10547 -1.45,0 -3.54,0.16407 -5.61,0.79688 -3.05,0.96875 -6.87,2.73828 -12.01,14.90626 -8.63,20.6641 -31.21,76.8125 -33.77,82.5863 -1.45,3.047 -1.91,4.961 -3.36,4.961 -0.96,0 -1.6,-0.801 -3.36,-5.274 L 1298.5,16.7852 Z m -85.53,81.6523 17.6,-0.3242 c 13.43,-0.3086 16.46,-3.3555 16.95,-7.5156 l 0.16,-1.4375 c 0.15,-1.9258 0.48,-2.4024 1.13,-2.4024 0.64,0 1.29,0.6445 1.29,1.7578 0,1.5821 0.49,11.3477 0.49,15.5154 0,0.793 0,1.594 -0.65,1.594 -0.64,0 -1.95,-0.312 -4.02,-0.637 -2.25,-0.32 -5.45,-0.64 -10.08,-0.64 h -53.09 c -1.6,0 -7.05,0.164 -11.05,0.64 -3.85,0.481 -5.27,1.606 -6.25,1.606 -0.47,0 -1.11,-1.77 -1.43,-2.563 -0.15,-1.121 -3.04,-13.2693 -3.04,-14.7146 0,-0.8008 0.64,-1.1133 0.95,-1.1133 0.65,0 1.14,0.1563 1.45,1.2774 0.49,0.957 0.64,1.914 2.25,4.3203 2.07,3.2031 5.44,4.1601 14.23,4.3125 l 20.34,0.3242 V 41.2891 c 0,-13.1368 0,-23.8555 -0.65,-29.4649 -0.47,-4.00389 -1.27,-6.72654 -4.16,-7.35936 -1.27,-0.32421 -2.87,-0.64843 -4.16,-0.64843 -0.8,0 -1.11,-0.46485 -1.11,-0.94532 0,-0.79296 0.62,-1.11328 2.24,-1.11328 4.16,0 13.91,0.46094 14.55,0.46094 0.8,0 9.75,-0.46094 17.43,-0.46094 1.6,0 2.22,0.47657 2.22,1.11328 0,0.48047 -0.15,1.10547 -1.11,1.10547 -1.27,0 -4.47,0.32032 -6.39,0.64063 -4.31,0.63672 -4.96,3.20312 -5.45,7.20701 -0.64,5.6094 -0.64,16.3281 -0.64,29.4649 z M 1075.82,0 c 7.7,0 16.5,0.957031 22.42,4.77344 10.08,6.57426 13.13,15.21486 13.13,23.22266 0,11.6914 -5.94,21.1367 -23.05,32.8242 l -4,2.7149 c -13.95,9.4531 -18.27,14.414 -18.27,23.0664 0,9.5976 8.5,14.7264 18.75,14.7264 12.64,0 17.29,-5.1288 18.25,-6.7264 0.8,-1.4493 1.91,-5.1211 2.09,-6.7188 0.15,-1.125 0.29,-1.7617 1.27,-1.7617 0.95,-0.1445 1.11,0.8203 1.11,2.9023 0,9.2657 0.64,13.7306 0.64,14.3676 0,0.797 -0.33,0.957 -1.44,0.957 -1.11,0 -2.23,0 -4.94,0.64 -3.38,0.957 -8.99,1.758 -14.57,1.758 -18.6,0 -31.21,-9.5897 -31.21,-25.5937 0,-9.4414 4.94,-17.7734 20.15,-29.1406 l 6.39,-4.8047 c 12.5,-9.2851 17.79,-13.9257 17.79,-23.6992 0,-10.2383 -7.2,-18.08592 -21.15,-18.08592 -9.43,0 -20.02,3.51562 -22.25,13.44532 -0.48,1.9219 -0.48,3.8359 -0.48,4.9609 0,1.1328 -0.47,1.6094 -1.27,1.6094 -0.8,0 -1.12,-0.7969 -1.12,-2.2461 -0.15,-2.2461 -0.8,-7.6836 -0.8,-14.41406 0,-3.67968 0.18,-4.16015 2.07,-5.10546 C 1061.09,0.957031 1069.26,0 1075.82,0 Z M 947.582,41.2891 c 0,-13.1368 0,-23.8555 -0.801,-29.4649 -0.652,-4.00389 -0.976,-6.72654 -3.691,-7.20701 -1.277,-0.15235 -3.047,-0.64063 -4.324,-0.64063 -0.801,0 -1.121,-0.625 -1.121,-1.10547 0,-0.79296 0.808,-1.11328 2.242,-1.11328 2.238,0 5.441,0.15625 8.176,0.32032 3.027,0.15625 5.742,0.15625 6.062,0.15625 2.082,0 5.754,0 11.68,-0.32032 5.761,-0.15625 13.937,-0.47656 24.508,-0.47656 5.429,0 6.875,0 7.832,3.51172 0.8,2.87109 1.915,12.16018 1.915,13.11718 0,0.9649 -0.158,2.0899 -0.958,2.0899 -0.801,0 -1.133,-0.4883 -1.446,-2.0899 -0.801,-5.4375 -2.715,-7.8398 -6.386,-9.44531 -3.672,-1.4414 -10.411,-1.4414 -14.086,-1.4414 -13.946,0 -16.504,1.75781 -16.829,10.88671 -0.156,2.7344 0,18.582 0,23.2227 v 11.3672 c 0,0.4804 0.168,0.9648 0.958,0.9648 2.414,0 17.46,-0.1641 21.324,-0.6406 5.429,-0.6446 6.718,-2.2383 7.187,-4.1641 0.645,-1.7539 0.645,-3.2031 0.645,-4.4805 0,-0.8007 0.312,-1.289 0.957,-1.289 0.957,0 1.269,1.457 1.269,2.5664 0,0.9687 0.332,6.0859 0.645,8.8008 0.312,4.4726 1.113,6.7187 1.113,7.5195 0,0.793 -0.312,1.1133 -0.801,1.1133 -0.468,0 -1.113,-0.8008 -2.07,-1.7578 -1.426,-1.4453 -3.516,-1.6016 -6.875,-1.9258 -3.203,-0.3086 -21.793,-0.3086 -23.551,-0.3086 -0.801,0 -0.801,0.4766 -0.801,1.4336 v 36.9922 c 0,0.957 0.168,1.4336 0.801,1.4336 1.602,0 17.942,-0.1524 20.348,-0.4766 7.676,-0.957 9.121,-1.9141 10.078,-4.1602 0.645,-1.6015 0.801,-3.8398 0.801,-4.7968 0,-1.1289 0.312,-1.7774 1.113,-1.7774 0.645,0 1.113,0.8047 1.289,1.4571 0.313,1.582 0.625,7.6562 0.801,8.9375 0.312,3.8553 1.113,5.4493 1.113,6.4143 0,0.633 -0.156,1.277 -0.644,1.277 -0.645,0 -1.27,-0.476 -1.914,-0.644 -1.114,-0.157 -3.672,-0.633 -6.387,-0.797 -3.203,-0.16 -32.66,0 -33.629,0 -0.801,0 -9.922,0.32 -16.316,0.32 -1.602,0 -2.243,-0.32 -2.243,-1.121 0,-0.481 0.641,-1.113 1.122,-1.113 1.277,0.015 3.679,-0.149 4.8,-0.305 4.641,-0.645 5.45,-2.8907 5.774,-7.5274 0.32,-4.3282 0.32,-8.1758 0.32,-29.3086 z M 758.668,65.3047 c 0,21.1328 0,24.9766 0.16,29.2969 0.32,4.7929 1.117,6.8824 5.289,7.6834 1.602,0.164 3.68,0.32 4.645,0.32 0.476,0 1.117,0.469 1.117,0.95 0,0.793 -0.801,1.113 -2.242,1.113 -4.332,0 -14.879,-0.305 -15.52,-0.305 -0.801,0 -9.59,0.305 -16,0.305 -1.601,0 -2.238,-0.32 -2.238,-1.113 0,-0.481 0.637,-1.106 1.121,-1.106 1.277,0 3.676,-0.164 4.801,-0.32 4.648,-0.645 5.449,-2.8907 5.765,-7.5274 0.325,-4.3203 0.325,-8.1641 0.325,-29.2969 V 41.2891 c 0,-13.1368 0,-23.8555 -0.801,-29.4649 -0.641,-4.00389 -0.965,-6.57029 -3.695,-7.20701 -1.278,-0.32031 -3.036,-0.64063 -4.317,-0.64063 -0.801,0 -1.121,-0.625 -1.121,-1.10547 0,-0.79296 0.801,-1.11328 2.242,-1.11328 2.239,0 5.285,0.15625 8.168,0.32032 2.711,0.15625 5.113,0.15625 5.75,0.15625 4.16,0 8.953,-0.15625 15.36,-0.32032 6.562,-0.3125 14.402,-0.47656 24.492,-0.47656 7.519,0 7.996,0.47656 8.961,3.66797 1.117,3.99609 2.078,12.16013 2.078,13.60543 0,1.4336 -0.317,2.0782 -0.961,2.0782 -0.797,0 -1.281,-0.8008 -1.438,-1.7578 -0.48,-2.7227 -1.601,-5.6016 -3.363,-7.6836 -3.359,-4.01176 -9.601,-4.16801 -16.969,-4.16801 -11.039,0 -16.488,0.95703 -18.73,3.21091 -2.559,2.4024 -2.879,10.5547 -2.879,30.5782 z M 616.797,45.2813 c -0.481,0 -0.641,0.3164 -0.481,0.957 l 13.122,37.2969 c 0.8,2.0781 1.601,2.0781 2.402,0 l 13.926,-37.2969 c 0.164,-0.6406 0.164,-0.957 -0.477,-0.957 H 616.797 Z M 596.469,16.7852 C 593.75,9.91016 591.031,5.09766 584.629,4.29688 c -1.117,-0.15625 -3.199,-0.32032 -4.16,-0.32032 -0.641,0 -1.281,-0.46875 -1.281,-1.10547 0,-0.79296 0.957,-1.11328 2.722,-1.11328 5.758,0 12.797,0.46094 14.238,0.46094 1.602,0 9.29,-0.46094 12.653,-0.46094 1.277,0 2.078,0.32032 2.078,1.11328 0,0.63672 -0.32,1.10547 -1.441,1.10547 h -1.278 c -2.402,0 -4.801,0.96485 -4.801,3.6875 0,2.40234 0.801,5.76564 2.079,9.12114 l 8,21.789 c 0.324,0.8008 0.8,1.1211 1.441,1.1211 h 32.488 c 0.801,0 0.961,-0.1562 1.281,-0.8008 L 661.289,7.66406 c 0.957,-2.24218 -0.484,-3.36718 -1.277,-3.6875 -0.641,-0.3164 -0.965,-0.3164 -0.965,-0.94922 0,-0.79296 2.242,-0.79296 4.961,-0.94921 9.762,-0.32032 20.172,-0.32032 22.254,-0.32032 1.593,0 3.195,0.32032 3.195,1.11328 0,0.78907 -0.961,1.10547 -1.758,1.10547 -1.437,0 -3.519,0.16407 -5.597,0.79688 -3.043,0.96875 -6.891,2.73828 -12.012,14.90626 -8.641,20.6641 -31.211,76.8125 -33.774,82.5863 -1.437,3.047 -1.918,4.961 -3.355,4.961 -0.965,0 -1.606,-0.801 -3.359,-5.274 L 596.469,16.7852 Z M 482.043,41.2891 c 0,-13.1368 0,-23.8555 -0.805,-29.4649 -0.636,-4.00389 -0.961,-6.72654 -3.679,-7.20701 -1.282,-0.15235 -3.043,-0.64063 -4.321,-0.64063 -0.8,0 -1.125,-0.625 -1.125,-1.10547 0,-0.79296 0.801,-1.11328 2.242,-1.11328 2.243,0 5.446,0.15625 8.165,0.32032 3.039,0.15625 5.746,0.15625 6.07,0.15625 2.078,0 5.762,0 11.68,-0.32032 5.769,-0.15625 13.941,-0.47656 24.511,-0.47656 5.418,0 6.856,0 7.817,3.51172 0.8,2.87109 1.929,12.16018 1.929,13.11718 0,0.9649 -0.156,2.0899 -0.968,2.0899 -0.801,0 -1.121,-0.4883 -1.442,-2.0899 -0.801,-5.4375 -2.719,-7.8398 -6.39,-9.44531 -3.672,-1.4414 -10.399,-1.4414 -14.079,-1.4414 -13.937,0 -16.503,1.75781 -16.82,10.88671 -0.16,2.7344 0,18.582 0,23.2227 v 11.3672 c 0,0.4804 0.16,0.9648 0.957,0.9648 2.403,0 17.461,-0.1641 21.305,-0.6406 5.449,-0.6446 6.726,-2.2383 7.207,-4.1641 0.641,-1.7539 0.641,-3.2031 0.641,-4.4805 0,-0.8007 0.32,-1.289 0.953,-1.289 0.949,0 1.265,1.457 1.265,2.5664 0,0.9687 0.321,6.0859 0.641,8.8008 0.324,4.4726 1.125,6.7187 1.125,7.5195 0,0.793 -0.324,1.1133 -0.801,1.1133 -0.484,0 -1.125,-0.8008 -2.07,-1.7578 -1.434,-1.4453 -3.512,-1.6016 -6.879,-1.9258 -3.203,-0.3086 -21.785,-0.3086 -23.543,-0.3086 -0.801,0 -0.801,0.4766 -0.801,1.4336 v 36.9922 c 0,0.957 0.16,1.4336 0.801,1.4336 1.598,0 17.941,-0.1524 20.34,-0.4766 7.687,-0.957 9.129,-1.9141 10.082,-4.1602 0.637,-1.6015 0.789,-3.8398 0.789,-4.7968 0,-1.1289 0.316,-1.7774 1.121,-1.7774 0.637,0 1.117,0.8047 1.277,1.4571 0.317,1.582 0.641,7.6562 0.801,8.9375 0.316,3.8553 1.117,5.4493 1.117,6.4143 0,0.633 -0.16,1.277 -0.636,1.277 -0.641,0 -1.282,-0.476 -1.922,-0.644 -1.121,-0.157 -3.66,-0.633 -6.379,-0.797 -3.211,-0.16 -32.672,0 -33.629,0 -0.793,0 -9.914,0.32 -16.317,0.32 -1.597,0 -2.238,-0.32 -2.238,-1.121 0,-0.481 0.641,-1.113 1.121,-1.113 1.282,0.015 3.684,-0.149 4.801,-0.305 4.645,-0.645 5.445,-2.8907 5.762,-7.5274 0.324,-4.3282 0.324,-8.1758 0.324,-29.3086 z M 345.992,97.4805 c 0,0.8008 0.477,1.2812 1.121,1.6015 1.442,0.3125 5.922,0.8008 10.09,0.8008 15.055,0 24.344,-9.7656 24.344,-26.7461 0,-10.4101 -3.688,-17.6094 -8.488,-20.8242 -3.364,-2.2344 -7.207,-2.3906 -10.575,-2.3906 -6.246,0 -13.453,0.957 -15.531,2.082 -0.64,0.4766 -0.961,0.9649 -0.961,1.7656 z M 333.844,41.3008 c 0,-13.1485 0,-23.8672 -0.797,-29.4766 -0.645,-3.99217 -0.961,-6.57029 -3.684,-7.20701 -1.281,-0.32031 -3.039,-0.64063 -4.32,-0.64063 -0.801,0 -1.121,-0.625 -1.121,-1.10547 0,-0.79296 0.801,-1.11328 2.238,-1.11328 4.324,0 13.758,0.46094 13.918,0.46094 0.641,0 9.594,-0.46094 17.285,-0.46094 1.602,0 2.242,0.47657 2.242,1.11328 0,0.48047 -0.164,1.10547 -1.125,1.10547 -1.277,0 -4.32,0.32032 -6.246,0.64063 -4.324,0.63672 -5.121,3.21484 -5.601,7.20701 -0.641,5.6094 -0.641,16.1719 -0.641,29.3203 v 3.1914 c 0,0.8008 0.321,1.125 0.961,1.125 l 17.934,-0.3242 c 0.965,0 1.285,-0.1562 1.926,-0.8008 3.042,-3.6836 9.285,-12.4882 15.214,-19.8554 7.989,-10.25 13.106,-16.81644 19.188,-20.01566 3.519,-1.91406 7.043,-2.70703 15.051,-2.70703 h 8.797 c 2.566,0 3.367,0.32032 3.367,1.11328 0,0.48047 -0.481,1.10547 -1.282,1.10547 -0.8,0 -2.242,0 -4.964,0.48828 -3.524,0.47657 -8.164,1.75782 -15.684,9.44146 -8.164,8.496 -17.922,20.8203 -29.437,35.2265 13.113,11.1992 17.269,20.9649 17.269,31.0547 0,9.4531 -6.23,16.0117 -9.746,18.5742 -7.363,5.1053 -17.297,5.9063 -26.262,5.9063 -4.324,0 -16.172,-0.305 -17.605,-0.305 -0.801,0 -10.235,0.305 -16.637,0.305 -1.602,0 -2.242,-0.32 -2.242,-1.121 0,-0.481 0.64,-1.106 1.121,-1.106 1.281,0.008 3.68,-0.156 4.805,-0.312 4.636,-0.645 5.437,-2.8907 5.757,-7.5274 0.321,-4.3203 0.321,-8.1758 0.321,-29.2969 V 41.3008" /></g></g></svg>